<?xml version="1.0" standalone="no"?>
<!DOCTYPE svg PUBLIC "-//W3C//DTD SVG 20010904//EN"
 "http://www.w3.org/TR/2001/REC-SVG-20010904/DTD/svg10.dtd">
<svg version="1.0" xmlns="http://www.w3.org/2000/svg"
 width="26.000000pt" height="26.000000pt" viewBox="0 0 26.000000 26.000000"
 preserveAspectRatio="xMidYMid meet">

<g transform="translate(0.000000,26.000000) scale(0.100000,-0.100000)"
fill="#000000" stroke="none">
<path d="M107 248 c-2 -7 -17 -13 -33 -13 -24 0 -29 -4 -26 -23 1 -16 -4 -25
-17 -29 -24 -6 -35 -42 -15 -50 10 -4 14 -16 12 -36 -3 -26 1 -32 22 -37 14
-3 25 -12 25 -20 0 -23 22 -32 44 -18 15 9 23 9 35 -1 17 -14 41 -4 41 19 0 8
11 17 25 20 21 5 25 11 22 38 -2 18 1 32 7 32 19 0 12 39 -9 50 -14 8 -19 17
-15 29 6 20 -15 34 -38 25 -8 -3 -20 2 -27 11 -15 18 -47 20 -53 3z m43 -44
c0 -8 -4 -12 -10 -9 -5 3 -10 10 -10 16 0 5 5 9 10 9 6 0 10 -7 10 -16z m-40
-24 c0 -18 -6 -33 -15 -36 -22 -9 -19 -44 4 -44 11 0 23 -4 26 -10 4 -6 -6
-10 -24 -10 -52 0 -66 66 -24 113 23 25 33 21 33 -13z m82 13 c27 -24 23 -53
-7 -53 -22 0 -25 4 -25 35 0 39 5 42 32 18z m-53 -30 c10 -19 9 -23 -4 -23
-10 0 -15 9 -15 27 0 29 2 29 19 -4z m29 -70 c-3 -34 -6 -38 -33 -41 -25 -2
-27 -1 -12 8 27 17 22 50 -8 50 -14 0 -25 5 -25 10 0 6 18 10 41 10 l40 0 -3
-37z m46 28 c3 -5 -3 -20 -14 -32 l-19 -24 -1 33 c0 31 21 45 34 23z"/>
</g>
</svg>
